D t280 o4 @4 v15 l8 q7 
D a 1    r4 [e  a ]3  >c+ e 1  ^2r4^8< 
D a+1    r4 [f+ a+]3 >c+ f+1  ^2r4^8< 
D t240 >d 1<  r4 [a >d<]3 >f+ a 1  ^2r4^8 
D t180 e4^8>e8^2^1^1r1
E o3 @6 v15 l8 q5 
E a 1    r4 [e  a ]3  >c+ e 1  ^2r4^8< 
E a+1    r4 [f+ a+]3  >c+ f+1  ^2r4^8< 
E >d 1<  r4 [a >d<]3  >f+ a 1  ^2r4^8 
E e4^8>e8^2^1^1r1
F o1 @14 v15l4 q6  a1^1^1^2g+2
F f+1^1^1 f+2c+2  d1^1^1^1  e1^1^1r1
